<svg width="96" height="96" viewBox="0 0 96 96" fill="none" xmlns="http://www.w3.org/2000/svg">
<path d="M48 0C34.974 0 33.336 0.06 28.218 0.288C23.1 0.528 19.614 1.332 16.56 2.52C13.3566 3.72491 10.4549 5.61496 8.058 8.058C5.61646 10.4562 3.72664 13.3574 2.52 16.56C1.332 19.608 0.522 23.1 0.288 28.2C0.06 33.33 0 34.962 0 48.006C0 61.038 0.06 62.67 0.288 67.788C0.528 72.9 1.332 76.386 2.52 79.44C3.75 82.596 5.388 85.272 8.058 87.942C10.722 90.612 13.398 92.256 16.554 93.48C19.614 94.668 23.094 95.478 28.206 95.712C33.33 95.94 34.962 96 48 96C61.038 96 62.664 95.94 67.788 95.712C72.894 95.472 76.392 94.668 79.446 93.48C82.6474 92.2745 85.5469 90.3845 87.942 87.942C90.612 85.272 92.25 82.596 93.48 79.44C94.662 76.386 95.472 72.9 95.712 67.788C95.94 62.67 96 61.038 96 48C96 34.962 95.94 33.33 95.712 28.206C95.472 23.1 94.662 19.608 93.48 16.56C92.2735 13.3574 90.3837 10.4561 87.942 8.058C85.5458 5.61405 82.644 3.72387 79.44 2.52C76.38 1.332 72.888 0.522 67.782 0.288C62.658 0.06 61.032 0 47.988 0H48.006H48ZM43.698 8.652H48.006C60.822 8.652 62.34 8.694 67.398 8.928C72.078 9.138 74.622 9.924 76.314 10.578C78.552 11.448 80.154 12.492 81.834 14.172C83.514 15.852 84.552 17.448 85.422 19.692C86.082 21.378 86.862 23.922 87.072 28.602C87.306 33.66 87.354 35.178 87.354 47.988C87.354 60.798 87.306 62.322 87.072 67.38C86.862 72.06 86.076 74.598 85.422 76.29C84.6525 78.3742 83.4242 80.2586 81.828 81.804C80.148 83.484 78.552 84.522 76.308 85.392C74.628 86.052 72.084 86.832 67.398 87.048C62.34 87.276 60.822 87.33 48.006 87.33C35.19 87.33 33.666 87.276 28.608 87.048C23.928 86.832 21.39 86.052 19.698 85.392C17.613 84.6235 15.7268 83.3975 14.178 81.804C12.5805 80.2562 11.3503 78.3699 10.578 76.284C9.924 74.598 9.138 72.054 8.928 67.374C8.7 62.316 8.652 60.798 8.652 47.976C8.652 35.16 8.7 33.648 8.928 28.59C9.144 23.91 9.924 21.366 10.584 19.674C11.454 17.436 12.498 15.834 14.178 14.154C15.858 12.474 17.454 11.436 19.698 10.566C21.39 9.906 23.928 9.126 28.608 8.91C33.036 8.706 34.752 8.646 43.698 8.64V8.652ZM73.626 16.62C72.8696 16.62 72.1206 16.769 71.4217 17.0585C70.7229 17.3479 70.0879 17.7722 69.5531 18.3071C69.0182 18.8419 68.5939 19.4769 68.3045 20.1757C68.015 20.8746 67.866 21.6236 67.866 22.38C67.866 23.1364 68.015 23.8854 68.3045 24.5843C68.5939 25.2831 69.0182 25.9181 69.5531 26.4529C70.0879 26.9878 70.7229 27.4121 71.4217 27.7015C72.1206 27.991 72.8696 28.14 73.626 28.14C75.1536 28.14 76.6187 27.5331 77.6989 26.4529C78.7791 25.3727 79.386 23.9076 79.386 22.38C79.386 20.8524 78.7791 19.3873 77.6989 18.3071C76.6187 17.2269 75.1536 16.62 73.626 16.62ZM48.006 23.352C44.7364 23.301 41.4894 23.9009 38.4539 25.1168C35.4184 26.3328 32.6551 28.1404 30.3249 30.4345C27.9947 32.7287 26.1442 35.4634 24.881 38.4796C23.6179 41.4957 22.9674 44.733 22.9674 48.003C22.9674 51.273 23.6179 54.5103 24.881 57.5264C26.1442 60.5426 27.9947 63.2773 30.3249 65.5715C32.6551 67.8656 35.4184 69.6732 38.4539 70.8892C41.4894 72.1051 44.7364 72.705 48.006 72.654C54.4772 72.553 60.6493 69.9115 65.1899 65.2995C69.7304 60.6875 72.2754 54.475 72.2754 48.003C72.2754 41.531 69.7304 35.3185 65.1899 30.7065C60.6493 26.0945 54.4772 23.453 48.006 23.352ZM48.006 31.998C52.25 31.998 56.3202 33.6839 59.3211 36.6849C62.3221 39.6858 64.008 43.756 64.008 48C64.008 52.244 62.3221 56.3142 59.3211 59.3151C56.3202 62.3161 52.25 64.002 48.006 64.002C43.762 64.002 39.6918 62.3161 36.6909 59.3151C33.6899 56.3142 32.004 52.244 32.004 48C32.004 43.756 33.6899 39.6858 36.6909 36.6849C39.6918 33.6839 43.762 31.998 48.006 31.998Z" fill="#DD2A78"/>
</svg>
