<svg width="96" height="96" viewBox="0 0 96 96" fill="none" xmlns="http://www.w3.org/2000/svg">
<g clip-path="url(#clip0_52_650)">
<path d="M96 48.294C96 21.618 74.508 -0.00598145 48 -0.00598145C21.48 1.85547e-05 -0.0119934 21.618 -0.0119934 48.3C-0.0119934 72.402 17.544 92.382 40.488 96.006V62.256H28.308V48.3H40.5V37.65C40.5 25.548 47.67 18.864 58.632 18.864C63.888 18.864 69.378 19.806 69.378 19.806V31.686H63.324C57.366 31.686 55.506 35.412 55.506 39.234V48.294H68.814L66.69 62.25H55.5V96C78.444 92.376 96 72.396 96 48.294Z" fill="#1877F2"/>
</g>
<defs>
<clipPath id="clip0_52_650">
<rect width="96" height="96" fill="white"/>
</clipPath>
</defs>
</svg>
