<svg width="301" height="85" viewBox="0 0 301 85" fill="none" xmlns="http://www.w3.org/2000/svg">
<path d="M73.1305 0.759997V85H52.6105V50.32H20.6905V85H0.170469V0.759997H20.6905V33.76H52.6105V0.759997H73.1305Z" fill="#14C49C"/>
<path d="M108.464 69.16H135.344V85H87.9439V0.759997H108.464V69.16ZM197.571 70.12H166.131L161.091 85H139.611L170.091 0.759997H193.851L224.331 85H202.611L197.571 70.12ZM192.291 54.28L181.851 23.44L171.531 54.28H192.291ZM284.608 41.8C289.488 42.84 293.408 45.28 296.368 49.12C299.328 52.88 300.808 57.2 300.808 62.08C300.808 69.12 298.328 74.72 293.368 78.88C288.488 82.96 281.648 85 272.848 85H233.608V0.759997H271.528C280.088 0.759997 286.768 2.72 291.568 6.63999C296.448 10.56 298.888 15.88 298.888 22.6C298.888 27.56 297.568 31.68 294.928 34.96C292.368 38.24 288.928 40.52 284.608 41.8ZM254.128 34.84H267.568C270.928 34.84 273.488 34.12 275.248 32.68C277.088 31.16 278.008 28.96 278.008 26.08C278.008 23.2 277.088 21 275.248 19.48C273.488 17.96 270.928 17.2 267.568 17.2H254.128V34.84ZM269.248 68.44C272.688 68.44 275.328 67.68 277.168 66.16C279.088 64.56 280.048 62.28 280.048 59.32C280.048 56.36 279.048 54.04 277.048 52.36C275.128 50.68 272.448 49.84 269.008 49.84H254.128V68.44H269.248Z" fill="#1C446C"/>
</svg>
